<?xml version="1.0" encoding="UTF-8" standalone="no"?>
<!DOCTYPE svg PUBLIC "-//W3C//DTD SVG 1.1//EN"
 "http://www.w3.org/Graphics/SVG/1.1/DTD/svg11.dtd">
<!-- Generated by graphviz version 2.43.0 (0)
 -->
<!-- Title: HoTT_Algebra_Categorical_MonoidObject Pages: 1 -->
<svg width="2504pt" height="1256pt"
 viewBox="0.00 0.00 2504.00 1256.00" xmlns="http://www.w3.org/2000/svg" xmlns:xlink="http://www.w3.org/1999/xlink">
<g id="graph0" class="graph" transform="scale(1 1) rotate(0) translate(4 1252)">
<title>HoTT_Algebra_Categorical_MonoidObject</title>
<polygon fill="white" stroke="transparent" points="-4,4 -4,-1252 2500,-1252 2500,4 -4,4"/>
<g id="clust1" class="cluster">
<title>cluster_MonoidObject</title>
<polygon fill="#ffffc3" stroke="black" points="8,-18.8 8,-1229.2 2488,-1229.2 2488,-18.8 8,-18.8"/>
<text text-anchor="middle" x="66" y="-1214" font-family="Times,serif" font-size="14.00">MonoidObject</text>
</g>
<!-- MonoidObject_iscommutativemonoid_hom -->
<g id="node1" class="node">
<title>MonoidObject_iscommutativemonoid_hom</title>
<g id="a_node1"><a xlink:href="MonoidObject.html#iscommutativemonoid_hom" xlink:title="iscommutativemonoid_hom">
<ellipse fill="#f070d1" stroke="black" cx="2272" cy="-1094.8" rx="137.59" ry="18"/>
<ellipse fill="none" stroke="black" cx="2272" cy="-1094.8" rx="141.58" ry="22"/>
<ellipse fill="none" stroke="black" cx="2272" cy="-1094.8" rx="145.58" ry="26"/>
<text text-anchor="middle" x="2272" y="-1091.1" font-family="Times,serif" font-size="14.00">iscommutativemonoid_hom</text>
</a>
</g>
</g>
<!-- MonoidObject_commutative_hom -->
<g id="node2" class="node">
<title>MonoidObject_commutative_hom</title>
<g id="a_node2"><a xlink:href="MonoidObject.html#commutative_hom" xlink:title="commutative_hom">
<ellipse fill="#f070d1" stroke="black" cx="2142" cy="-681.8" rx="95.58" ry="18"/>
<text text-anchor="middle" x="2142" y="-678.1" font-family="Times,serif" font-size="14.00">commutative_hom</text>
</a>
</g>
</g>
<!-- MonoidObject_iscommutativemonoid_hom&#45;&gt;MonoidObject_commutative_hom -->
<g id="edge1" class="edge">
<title>MonoidObject_iscommutativemonoid_hom&#45;&gt;MonoidObject_commutative_hom</title>
<path fill="none" stroke="black" d="M2264.06,-1068.71C2241,-995.8 2174.14,-784.42 2150.45,-709.51"/>
<polygon fill="black" stroke="black" points="2153.75,-708.35 2147.4,-699.87 2147.08,-710.46 2153.75,-708.35"/>
</g>
<!-- MonoidObject_ismonoid_hom -->
<g id="node3" class="node">
<title>MonoidObject_ismonoid_hom</title>
<g id="a_node3"><a xlink:href="MonoidObject.html#ismonoid_hom" xlink:title="ismonoid_hom">
<ellipse fill="#f070d1" stroke="black" cx="2375" cy="-888.8" rx="77.19" ry="18"/>
<text text-anchor="middle" x="2375" y="-885.1" font-family="Times,serif" font-size="14.00">ismonoid_hom</text>
</a>
</g>
</g>
<!-- MonoidObject_iscommutativemonoid_hom&#45;&gt;MonoidObject_ismonoid_hom -->
<g id="edge2" class="edge">
<title>MonoidObject_iscommutativemonoid_hom&#45;&gt;MonoidObject_ismonoid_hom</title>
<path fill="none" stroke="black" d="M2284.63,-1068.79C2304.24,-1029.95 2341.83,-955.5 2361.79,-915.97"/>
<polygon fill="black" stroke="black" points="2365.08,-917.22 2366.46,-906.71 2358.83,-914.06 2365.08,-917.22"/>
</g>
<!-- MonoidObject_sgop_hom -->
<g id="node9" class="node">
<title>MonoidObject_sgop_hom</title>
<g id="a_node9"><a xlink:href="MonoidObject.html#sgop_hom" xlink:title="sgop_hom">
<ellipse fill="#f070d1" stroke="black" cx="1995" cy="-267.8" rx="57.39" ry="18"/>
<text text-anchor="middle" x="1995" y="-264.1" font-family="Times,serif" font-size="14.00">sgop_hom</text>
</a>
</g>
</g>
<!-- MonoidObject_commutative_hom&#45;&gt;MonoidObject_sgop_hom -->
<g id="edge3" class="edge">
<title>MonoidObject_commutative_hom&#45;&gt;MonoidObject_sgop_hom</title>
<path fill="none" stroke="black" d="M2102.81,-665.31C2045.91,-640.4 1942.55,-585.49 1900,-500.8 1862.93,-427.03 1932.96,-335.2 1971.72,-292.58"/>
<polygon fill="black" stroke="black" points="1974.32,-294.93 1978.56,-285.21 1969.19,-290.16 1974.32,-294.93"/>
</g>
<!-- MonoidObject_IsCommutativeMonoidObject -->
<g id="node25" class="node">
<title>MonoidObject_IsCommutativeMonoidObject</title>
<g id="a_node25"><a xlink:href="MonoidObject.html#IsCommutativeMonoidObject" xlink:title="IsCommutativeMonoidObject">
<ellipse fill="#e2cdfa" stroke="black" cx="1546" cy="-474.8" rx="146.47" ry="18"/>
<text text-anchor="middle" x="1546" y="-471.1" font-family="Times,serif" font-size="14.00">IsCommutativeMonoidObject</text>
</a>
</g>
</g>
<!-- MonoidObject_commutative_hom&#45;&gt;MonoidObject_IsCommutativeMonoidObject -->
<g id="edge4" class="edge">
<title>MonoidObject_commutative_hom&#45;&gt;MonoidObject_IsCommutativeMonoidObject</title>
<path fill="none" stroke="black" d="M2098.17,-665.73C1991.89,-629.17 1720.47,-535.81 1602.34,-495.18"/>
<polygon fill="black" stroke="black" points="1603.35,-491.83 1592.75,-491.88 1601.07,-498.45 1603.35,-491.83"/>
</g>
<!-- MonoidObject_issemigroup_hom -->
<g id="node4" class="node">
<title>MonoidObject_issemigroup_hom</title>
<g id="a_node4"><a xlink:href="MonoidObject.html#issemigroup_hom" xlink:title="issemigroup_hom">
<ellipse fill="#f070d1" stroke="black" cx="2348" cy="-681.8" rx="92.08" ry="18"/>
<text text-anchor="middle" x="2348" y="-678.1" font-family="Times,serif" font-size="14.00">issemigroup_hom</text>
</a>
</g>
</g>
<!-- MonoidObject_ismonoid_hom&#45;&gt;MonoidObject_issemigroup_hom -->
<g id="edge5" class="edge">
<title>MonoidObject_ismonoid_hom&#45;&gt;MonoidObject_issemigroup_hom</title>
<path fill="none" stroke="black" d="M2372.74,-870.68C2368.06,-835.1 2357.24,-752.96 2351.59,-710.04"/>
<polygon fill="black" stroke="black" points="2355.04,-709.48 2350.27,-700.02 2348.1,-710.39 2355.04,-709.48"/>
</g>
<!-- MonoidObject_rightidentity_hom -->
<g id="node5" class="node">
<title>MonoidObject_rightidentity_hom</title>
<g id="a_node5"><a xlink:href="MonoidObject.html#rightidentity_hom" xlink:title="rightidentity_hom">
<ellipse fill="#f070d1" stroke="black" cx="2386" cy="-474.8" rx="94.48" ry="18"/>
<text text-anchor="middle" x="2386" y="-471.1" font-family="Times,serif" font-size="14.00">rightidentity_hom</text>
</a>
</g>
</g>
<!-- MonoidObject_ismonoid_hom&#45;&gt;MonoidObject_rightidentity_hom -->
<g id="edge6" class="edge">
<title>MonoidObject_ismonoid_hom&#45;&gt;MonoidObject_rightidentity_hom</title>
<path fill="none" stroke="black" d="M2386.69,-870.94C2407.2,-840.21 2448.93,-772.3 2464,-707.8 2482.01,-630.73 2432.53,-543 2404.23,-500.92"/>
<polygon fill="black" stroke="black" points="2407.09,-498.91 2398.54,-492.65 2401.32,-502.88 2407.09,-498.91"/>
</g>
<!-- MonoidObject_leftidentity_hom -->
<g id="node6" class="node">
<title>MonoidObject_leftidentity_hom</title>
<g id="a_node6"><a xlink:href="MonoidObject.html#leftidentity_hom" xlink:title="leftidentity_hom">
<ellipse fill="#f070d1" stroke="black" cx="2187" cy="-474.8" rx="87.18" ry="18"/>
<text text-anchor="middle" x="2187" y="-471.1" font-family="Times,serif" font-size="14.00">leftidentity_hom</text>
</a>
</g>
</g>
<!-- MonoidObject_ismonoid_hom&#45;&gt;MonoidObject_leftidentity_hom -->
<g id="edge7" class="edge">
<title>MonoidObject_ismonoid_hom&#45;&gt;MonoidObject_leftidentity_hom</title>
<path fill="none" stroke="black" d="M2389.03,-870.99C2420.05,-831.63 2488.67,-731.19 2449,-655.8 2404.88,-571.96 2302.1,-519.61 2239.18,-494.23"/>
<polygon fill="black" stroke="black" points="2240.41,-490.95 2229.82,-490.53 2237.83,-497.46 2240.41,-490.95"/>
</g>
<!-- MonoidObject_associative_hom -->
<g id="node7" class="node">
<title>MonoidObject_associative_hom</title>
<g id="a_node7"><a xlink:href="MonoidObject.html#associative_hom" xlink:title="associative_hom">
<ellipse fill="#f070d1" stroke="black" cx="1995" cy="-474.8" rx="86.38" ry="18"/>
<text text-anchor="middle" x="1995" y="-471.1" font-family="Times,serif" font-size="14.00">associative_hom</text>
</a>
</g>
</g>
<!-- MonoidObject_issemigroup_hom&#45;&gt;MonoidObject_associative_hom -->
<g id="edge8" class="edge">
<title>MonoidObject_issemigroup_hom&#45;&gt;MonoidObject_associative_hom</title>
<path fill="none" stroke="black" d="M2320.01,-664.54C2256.8,-627.84 2103.03,-538.54 2032.04,-497.31"/>
<polygon fill="black" stroke="black" points="2033.4,-494.06 2023,-492.06 2029.89,-500.11 2033.4,-494.06"/>
</g>
<!-- MonoidObject_monunit_hom -->
<g id="node8" class="node">
<title>MonoidObject_monunit_hom</title>
<g id="a_node8"><a xlink:href="MonoidObject.html#monunit_hom" xlink:title="monunit_hom">
<ellipse fill="#f070d1" stroke="black" cx="2187" cy="-267.8" rx="73.39" ry="18"/>
<text text-anchor="middle" x="2187" y="-264.1" font-family="Times,serif" font-size="14.00">monunit_hom</text>
</a>
</g>
</g>
<!-- MonoidObject_rightidentity_hom&#45;&gt;MonoidObject_monunit_hom -->
<g id="edge9" class="edge">
<title>MonoidObject_rightidentity_hom&#45;&gt;MonoidObject_monunit_hom</title>
<path fill="none" stroke="black" d="M2369.71,-457.03C2334.5,-420.75 2251.15,-334.89 2210.34,-292.84"/>
<polygon fill="black" stroke="black" points="2212.71,-290.26 2203.23,-285.52 2207.68,-295.14 2212.71,-290.26"/>
</g>
<!-- MonoidObject_rightidentity_hom&#45;&gt;MonoidObject_sgop_hom -->
<g id="edge10" class="edge">
<title>MonoidObject_rightidentity_hom&#45;&gt;MonoidObject_sgop_hom</title>
<path fill="none" stroke="black" d="M2355.32,-457.72C2284.3,-420.48 2108.84,-328.49 2032.02,-288.21"/>
<polygon fill="black" stroke="black" points="2033.64,-285.11 2023.15,-283.56 2030.39,-291.31 2033.64,-285.11"/>
</g>
<!-- MonoidObject_leftidentity_hom&#45;&gt;MonoidObject_monunit_hom -->
<g id="edge11" class="edge">
<title>MonoidObject_leftidentity_hom&#45;&gt;MonoidObject_monunit_hom</title>
<path fill="none" stroke="black" d="M2187,-456.68C2187,-421.1 2187,-338.96 2187,-296.04"/>
<polygon fill="black" stroke="black" points="2190.5,-296.02 2187,-286.02 2183.5,-296.02 2190.5,-296.02"/>
</g>
<!-- MonoidObject_leftidentity_hom&#45;&gt;MonoidObject_sgop_hom -->
<g id="edge12" class="edge">
<title>MonoidObject_leftidentity_hom&#45;&gt;MonoidObject_sgop_hom</title>
<path fill="none" stroke="black" d="M2171.29,-457.03C2137.3,-420.73 2056.83,-334.82 2017.47,-292.79"/>
<polygon fill="black" stroke="black" points="2019.78,-290.14 2010.39,-285.24 2014.67,-294.93 2019.78,-290.14"/>
</g>
<!-- MonoidObject_associative_hom&#45;&gt;MonoidObject_sgop_hom -->
<g id="edge13" class="edge">
<title>MonoidObject_associative_hom&#45;&gt;MonoidObject_sgop_hom</title>
<path fill="none" stroke="black" d="M1995,-456.68C1995,-421.1 1995,-338.96 1995,-296.04"/>
<polygon fill="black" stroke="black" points="1998.5,-296.02 1995,-286.02 1991.5,-296.02 1998.5,-296.02"/>
</g>
<!-- MonoidObject_IsMonoidObject -->
<g id="node36" class="node">
<title>MonoidObject_IsMonoidObject</title>
<g id="a_node36"><a xlink:href="MonoidObject.html#IsMonoidObject" xlink:title="IsMonoidObject">
<ellipse fill="#e2cdfa" stroke="black" cx="1241" cy="-79.8" rx="83.69" ry="18"/>
<text text-anchor="middle" x="1241" y="-76.1" font-family="Times,serif" font-size="14.00">IsMonoidObject</text>
</a>
</g>
</g>
<!-- MonoidObject_monunit_hom&#45;&gt;MonoidObject_IsMonoidObject -->
<g id="edge14" class="edge">
<title>MonoidObject_monunit_hom&#45;&gt;MonoidObject_IsMonoidObject</title>
<path fill="none" stroke="black" d="M2131.8,-255.83C2109.78,-251.45 2084.19,-246.38 2061,-241.8 1783.01,-186.93 1451.89,-122.07 1310.53,-94.41"/>
<polygon fill="black" stroke="black" points="1311.17,-90.96 1300.68,-92.48 1309.82,-97.83 1311.17,-90.96"/>
</g>
<!-- MonoidObject_sgop_hom&#45;&gt;MonoidObject_IsMonoidObject -->
<g id="edge15" class="edge">
<title>MonoidObject_sgop_hom&#45;&gt;MonoidObject_IsMonoidObject</title>
<path fill="none" stroke="black" d="M1951.48,-256.07C1824.25,-224.68 1452.6,-133 1303.73,-96.28"/>
<polygon fill="black" stroke="black" points="1304.37,-92.83 1293.83,-93.83 1302.7,-99.63 1304.37,-92.83"/>
</g>
<!-- MonoidObject_Build_IsCocommutativeComonoidObject -->
<g id="node10" class="node">
<title>MonoidObject_Build_IsCocommutativeComonoidObject</title>
<g id="a_node10"><a xlink:href="MonoidObject.html#Build_IsCocommutativeComonoidObject" xlink:title="Build_IsCocommutativeComonoidObject">
<ellipse fill="#f070d1" stroke="black" cx="256" cy="-888.8" rx="196.87" ry="18"/>
<ellipse fill="none" stroke="black" cx="256" cy="-888.8" rx="200.87" ry="22"/>
<ellipse fill="none" stroke="black" cx="256" cy="-888.8" rx="204.87" ry="26"/>
<text text-anchor="middle" x="256" y="-885.1" font-family="Times,serif" font-size="14.00">Build_IsCocommutativeComonoidObject</text>
</a>
</g>
</g>
<!-- MonoidObject_IsCocommutativeComonoidObject -->
<g id="node12" class="node">
<title>MonoidObject_IsCocommutativeComonoidObject</title>
<g id="a_node12"><a xlink:href="MonoidObject.html#IsCocommutativeComonoidObject" xlink:title="IsCocommutativeComonoidObject">
<ellipse fill="#f070d1" stroke="black" cx="1860" cy="-681.8" rx="168.17" ry="18"/>
<text text-anchor="middle" x="1860" y="-678.1" font-family="Times,serif" font-size="14.00">IsCocommutativeComonoidObject</text>
</a>
</g>
</g>
<!-- MonoidObject_Build_IsCocommutativeComonoidObject&#45;&gt;MonoidObject_IsCocommutativeComonoidObject -->
<g id="edge16" class="edge">
<title>MonoidObject_Build_IsCocommutativeComonoidObject&#45;&gt;MonoidObject_IsCocommutativeComonoidObject</title>
<path fill="none" stroke="black" d="M400.41,-870.3C658.14,-838.92 1214.29,-770.46 1683,-707.8 1706.01,-704.73 1730.69,-701.31 1754.1,-698.02"/>
<polygon fill="black" stroke="black" points="1754.63,-701.48 1764.04,-696.62 1753.65,-694.55 1754.63,-701.48"/>
</g>
<!-- MonoidObject_co_comult -->
<g id="node14" class="node">
<title>MonoidObject_co_comult</title>
<g id="a_node14"><a xlink:href="MonoidObject.html#co_comult" xlink:title="co_comult">
<ellipse fill="#f070d1" stroke="black" cx="73" cy="-681.8" rx="57.39" ry="18"/>
<text text-anchor="middle" x="73" y="-678.1" font-family="Times,serif" font-size="14.00">co_comult</text>
</a>
</g>
</g>
<!-- MonoidObject_Build_IsCocommutativeComonoidObject&#45;&gt;MonoidObject_co_comult -->
<g id="edge17" class="edge">
<title>MonoidObject_Build_IsCocommutativeComonoidObject&#45;&gt;MonoidObject_co_comult</title>
<path fill="none" stroke="black" d="M233.56,-862.67C198.1,-822.94 129.54,-746.14 94.61,-707.01"/>
<polygon fill="black" stroke="black" points="96.96,-704.38 87.69,-699.25 91.73,-709.04 96.96,-704.38"/>
</g>
<!-- MonoidObject_Build_IsCommutativeMonoidObject -->
<g id="node24" class="node">
<title>MonoidObject_Build_IsCommutativeMonoidObject</title>
<g id="a_node24"><a xlink:href="MonoidObject.html#Build_IsCommutativeMonoidObject" xlink:title="Build_IsCommutativeMonoidObject">
<ellipse fill="#7faaff" stroke="black" cx="965" cy="-474.8" rx="174.67" ry="18"/>
<text text-anchor="middle" x="965" y="-471.1" font-family="Times,serif" font-size="14.00">Build_IsCommutativeMonoidObject</text>
</a>
</g>
</g>
<!-- MonoidObject_Build_IsCocommutativeComonoidObject&#45;&gt;MonoidObject_Build_IsCommutativeMonoidObject -->
<g id="edge18" class="edge">
<title>MonoidObject_Build_IsCocommutativeComonoidObject&#45;&gt;MonoidObject_Build_IsCommutativeMonoidObject</title>
<path fill="none" stroke="black" d="M259.34,-862.79C267.13,-805.98 286.93,-670.94 301,-655.8 375.99,-575.12 687.62,-517.26 855.96,-491.22"/>
<polygon fill="black" stroke="black" points="856.5,-494.68 865.85,-489.7 855.43,-487.76 856.5,-494.68"/>
</g>
<!-- MonoidObject_iscommuatativemonoid_cocomutativemonoid_op -->
<g id="node11" class="node">
<title>MonoidObject_iscommuatativemonoid_cocomutativemonoid_op</title>
<g id="a_node11"><a xlink:href="MonoidObject.html#iscommuatativemonoid_cocomutativemonoid_op" xlink:title="iscommuatativemonoid_cocomutativemonoid_op">
<ellipse fill="#f070d1" stroke="black" cx="1860" cy="-888.8" rx="234.75" ry="18"/>
<ellipse fill="none" stroke="black" cx="1860" cy="-888.8" rx="238.76" ry="22"/>
<ellipse fill="none" stroke="black" cx="1860" cy="-888.8" rx="242.76" ry="26"/>
<text text-anchor="middle" x="1860" y="-885.1" font-family="Times,serif" font-size="14.00">iscommuatativemonoid_cocomutativemonoid_op</text>
</a>
</g>
</g>
<!-- MonoidObject_iscommuatativemonoid_cocomutativemonoid_op&#45;&gt;MonoidObject_IsCocommutativeComonoidObject -->
<g id="edge19" class="edge">
<title>MonoidObject_iscommuatativemonoid_cocomutativemonoid_op&#45;&gt;MonoidObject_IsCocommutativeComonoidObject</title>
<path fill="none" stroke="black" d="M1860,-862.67C1860,-823.98 1860,-750.15 1860,-710.16"/>
<polygon fill="black" stroke="black" points="1863.5,-710.07 1860,-700.07 1856.5,-710.07 1863.5,-710.07"/>
</g>
<!-- MonoidObject_IsCocommutativeComonoidObject&#45;&gt;MonoidObject_IsCommutativeMonoidObject -->
<g id="edge20" class="edge">
<title>MonoidObject_IsCocommutativeComonoidObject&#45;&gt;MonoidObject_IsCommutativeMonoidObject</title>
<path fill="none" stroke="black" d="M1834.04,-663.85C1777.62,-627.02 1643.85,-539.68 1580.46,-498.3"/>
<polygon fill="black" stroke="black" points="1582.28,-495.31 1571.99,-492.77 1578.45,-501.17 1582.28,-495.31"/>
</g>
<!-- MonoidObject_co_counit -->
<g id="node13" class="node">
<title>MonoidObject_co_counit</title>
<g id="a_node13"><a xlink:href="MonoidObject.html#co_counit" xlink:title="co_counit">
<ellipse fill="#f070d1" stroke="black" cx="210" cy="-681.8" rx="53.9" ry="18"/>
<ellipse fill="none" stroke="black" cx="210" cy="-681.8" rx="57.89" ry="22"/>
<ellipse fill="none" stroke="black" cx="210" cy="-681.8" rx="61.89" ry="26"/>
<text text-anchor="middle" x="210" y="-678.1" font-family="Times,serif" font-size="14.00">co_counit</text>
</a>
</g>
</g>
<!-- MonoidObject_ismonoid_comonoid_op -->
<g id="node16" class="node">
<title>MonoidObject_ismonoid_comonoid_op</title>
<g id="a_node16"><a xlink:href="MonoidObject.html#ismonoid_comonoid_op" xlink:title="ismonoid_comonoid_op">
<ellipse fill="#f070d1" stroke="black" cx="655" cy="-474.8" rx="116.98" ry="18"/>
<text text-anchor="middle" x="655" y="-471.1" font-family="Times,serif" font-size="14.00">ismonoid_comonoid_op</text>
</a>
</g>
</g>
<!-- MonoidObject_co_counit&#45;&gt;MonoidObject_ismonoid_comonoid_op -->
<g id="edge21" class="edge">
<title>MonoidObject_co_counit&#45;&gt;MonoidObject_ismonoid_comonoid_op</title>
<path fill="none" stroke="black" d="M250.67,-662.07C334.12,-623.63 524.09,-536.11 610.6,-496.25"/>
<polygon fill="black" stroke="black" points="612.27,-499.34 619.89,-491.98 609.34,-492.98 612.27,-499.34"/>
</g>
<!-- MonoidObject_co_comult&#45;&gt;MonoidObject_ismonoid_comonoid_op -->
<g id="edge22" class="edge">
<title>MonoidObject_co_comult&#45;&gt;MonoidObject_ismonoid_comonoid_op</title>
<path fill="none" stroke="black" d="M107.87,-667.4C117.9,-663.59 128.87,-659.49 139,-655.8 305.85,-595.11 504.48,-526.97 599.28,-494.7"/>
<polygon fill="black" stroke="black" points="600.61,-497.94 608.95,-491.41 598.36,-491.32 600.61,-497.94"/>
</g>
<!-- MonoidObject_Build_IsComonoidObject -->
<g id="node15" class="node">
<title>MonoidObject_Build_IsComonoidObject</title>
<g id="a_node15"><a xlink:href="MonoidObject.html#Build_IsComonoidObject" xlink:title="Build_IsComonoidObject">
<ellipse fill="#f070d1" stroke="black" cx="148" cy="-474.8" rx="124.27" ry="18"/>
<ellipse fill="none" stroke="black" cx="148" cy="-474.8" rx="128.27" ry="22"/>
<ellipse fill="none" stroke="black" cx="148" cy="-474.8" rx="132.28" ry="26"/>
<text text-anchor="middle" x="148" y="-471.1" font-family="Times,serif" font-size="14.00">Build_IsComonoidObject</text>
</a>
</g>
</g>
<!-- MonoidObject_IsComonoidObject -->
<g id="node17" class="node">
<title>MonoidObject_IsComonoidObject</title>
<g id="a_node17"><a xlink:href="MonoidObject.html#IsComonoidObject" xlink:title="IsComonoidObject">
<ellipse fill="#f070d1" stroke="black" cx="1615" cy="-267.8" rx="95.58" ry="18"/>
<text text-anchor="middle" x="1615" y="-264.1" font-family="Times,serif" font-size="14.00">IsComonoidObject</text>
</a>
</g>
</g>
<!-- MonoidObject_Build_IsComonoidObject&#45;&gt;MonoidObject_IsComonoidObject -->
<g id="edge23" class="edge">
<title>MonoidObject_Build_IsComonoidObject&#45;&gt;MonoidObject_IsComonoidObject</title>
<path fill="none" stroke="black" d="M241.94,-456.48C257.63,-453.78 273.76,-451.12 289,-448.8 829.81,-366.58 971.82,-391.74 1510,-293.8 1523.5,-291.35 1537.87,-288.25 1551.5,-285.08"/>
<polygon fill="black" stroke="black" points="1552.35,-288.47 1561.28,-282.77 1550.74,-281.66 1552.35,-288.47"/>
</g>
<!-- MonoidObject_Build_IsMonoidObject -->
<g id="node35" class="node">
<title>MonoidObject_Build_IsMonoidObject</title>
<g id="a_node35"><a xlink:href="MonoidObject.html#Build_IsMonoidObject" xlink:title="Build_IsMonoidObject">
<ellipse fill="#7faaff" stroke="black" cx="269" cy="-79.8" rx="112.38" ry="18"/>
<text text-anchor="middle" x="269" y="-76.1" font-family="Times,serif" font-size="14.00">Build_IsMonoidObject</text>
</a>
</g>
</g>
<!-- MonoidObject_Build_IsComonoidObject&#45;&gt;MonoidObject_Build_IsMonoidObject -->
<g id="edge24" class="edge">
<title>MonoidObject_Build_IsComonoidObject&#45;&gt;MonoidObject_Build_IsMonoidObject</title>
<path fill="none" stroke="black" d="M118.39,-449.32C70.83,-406.91 -13.33,-317.08 27,-241.8 66.11,-168.8 154.53,-123.23 212.97,-99.92"/>
<polygon fill="black" stroke="black" points="214.38,-103.13 222.43,-96.24 211.84,-96.61 214.38,-103.13"/>
</g>
<!-- MonoidObject_ismonoid_comonoid_op&#45;&gt;MonoidObject_IsComonoidObject -->
<g id="edge25" class="edge">
<title>MonoidObject_ismonoid_comonoid_op&#45;&gt;MonoidObject_IsComonoidObject</title>
<path fill="none" stroke="black" d="M723.02,-460.11C867.95,-430.81 1217.86,-359.32 1510,-293.8 1522.68,-290.96 1536.19,-287.82 1549.15,-284.76"/>
<polygon fill="black" stroke="black" points="1550.01,-288.15 1558.94,-282.44 1548.4,-281.34 1550.01,-288.15"/>
</g>
<!-- MonoidObject_IsComonoidObject&#45;&gt;MonoidObject_IsMonoidObject -->
<g id="edge26" class="edge">
<title>MonoidObject_IsComonoidObject&#45;&gt;MonoidObject_IsMonoidObject</title>
<path fill="none" stroke="black" d="M1582.79,-250.78C1514.82,-216.98 1356.85,-138.42 1281.89,-101.14"/>
<polygon fill="black" stroke="black" points="1283.25,-97.9 1272.74,-96.59 1280.13,-104.17 1283.25,-97.9"/>
</g>
<!-- MonoidObject_cmo_comm -->
<g id="node18" class="node">
<title>MonoidObject_cmo_comm</title>
<g id="a_node18"><a xlink:href="MonoidObject.html#cmo_comm" xlink:title="cmo_comm">
<ellipse fill="#f070d1" stroke="black" cx="1474" cy="-681.8" rx="61.96" ry="18"/>
<ellipse fill="none" stroke="black" cx="1474" cy="-681.8" rx="65.98" ry="22"/>
<ellipse fill="none" stroke="black" cx="1474" cy="-681.8" rx="69.99" ry="26"/>
<text text-anchor="middle" x="1474" y="-678.1" font-family="Times,serif" font-size="14.00">cmo_comm</text>
</a>
</g>
</g>
<!-- MonoidObject_cmo_comm&#45;&gt;MonoidObject_IsCommutativeMonoidObject -->
<g id="edge27" class="edge">
<title>MonoidObject_cmo_comm&#45;&gt;MonoidObject_IsCommutativeMonoidObject</title>
<path fill="none" stroke="black" d="M1482.83,-655.67C1496.51,-616.72 1522.7,-542.14 1536.68,-502.35"/>
<polygon fill="black" stroke="black" points="1540.02,-503.39 1540.03,-492.8 1533.42,-501.07 1540.02,-503.39"/>
</g>
<!-- MonoidObject_cmo_mo -->
<g id="node19" class="node">
<title>MonoidObject_cmo_mo</title>
<g id="a_node19"><a xlink:href="MonoidObject.html#cmo_mo" xlink:title="cmo_mo">
<ellipse fill="#f070d1" stroke="black" cx="1618" cy="-681.8" rx="48.18" ry="18"/>
<ellipse fill="none" stroke="black" cx="1618" cy="-681.8" rx="52.18" ry="22"/>
<ellipse fill="none" stroke="black" cx="1618" cy="-681.8" rx="56.19" ry="26"/>
<text text-anchor="middle" x="1618" y="-678.1" font-family="Times,serif" font-size="14.00">cmo_mo</text>
</a>
</g>
</g>
<!-- MonoidObject_cmo_mo&#45;&gt;MonoidObject_IsCommutativeMonoidObject -->
<g id="edge28" class="edge">
<title>MonoidObject_cmo_mo&#45;&gt;MonoidObject_IsCommutativeMonoidObject</title>
<path fill="none" stroke="black" d="M1609.32,-656.07C1595.69,-617.28 1569.4,-542.43 1555.37,-502.47"/>
<polygon fill="black" stroke="black" points="1558.61,-501.15 1552,-492.88 1552.01,-503.47 1558.61,-501.15"/>
</g>
<!-- MonoidObject_IsCommutativeMonoidObject_sind -->
<g id="node20" class="node">
<title>MonoidObject_IsCommutativeMonoidObject_sind</title>
<g id="a_node20"><a xlink:href="MonoidObject.html#IsCommutativeMonoidObject_sind" xlink:title="IsCommutativeMonoidObject_sind">
<ellipse fill="#f070d1" stroke="black" cx="844" cy="-681.8" rx="170.08" ry="18"/>
<ellipse fill="none" stroke="black" cx="844" cy="-681.8" rx="174.07" ry="22"/>
<ellipse fill="none" stroke="black" cx="844" cy="-681.8" rx="178.07" ry="26"/>
<text text-anchor="middle" x="844" y="-678.1" font-family="Times,serif" font-size="14.00">IsCommutativeMonoidObject_sind</text>
</a>
</g>
</g>
<!-- MonoidObject_IsCommutativeMonoidObject_sind&#45;&gt;MonoidObject_Build_IsCommutativeMonoidObject -->
<g id="edge29" class="edge">
<title>MonoidObject_IsCommutativeMonoidObject_sind&#45;&gt;MonoidObject_Build_IsCommutativeMonoidObject</title>
<path fill="none" stroke="black" d="M858.84,-655.67C881.97,-616.47 926.41,-541.19 949.78,-501.59"/>
<polygon fill="black" stroke="black" points="952.9,-503.19 954.97,-492.8 946.87,-499.63 952.9,-503.19"/>
</g>
<!-- MonoidObject_IsCommutativeMonoidObject_sind&#45;&gt;MonoidObject_IsCommutativeMonoidObject -->
<g id="edge30" class="edge">
<title>MonoidObject_IsCommutativeMonoidObject_sind&#45;&gt;MonoidObject_IsCommutativeMonoidObject</title>
<path fill="none" stroke="black" d="M921.13,-658.28C1060.68,-617.53 1352.56,-532.29 1481.92,-494.52"/>
<polygon fill="black" stroke="black" points="1483.07,-497.82 1491.69,-491.66 1481.11,-491.1 1483.07,-497.82"/>
</g>
<!-- MonoidObject_IsCommutativeMonoidObject_rec -->
<g id="node21" class="node">
<title>MonoidObject_IsCommutativeMonoidObject_rec</title>
<g id="a_node21"><a xlink:href="MonoidObject.html#IsCommutativeMonoidObject_rec" xlink:title="IsCommutativeMonoidObject_rec">
<ellipse fill="#f070d1" stroke="black" cx="652" cy="-888.8" rx="165.17" ry="18"/>
<ellipse fill="none" stroke="black" cx="652" cy="-888.8" rx="169.17" ry="22"/>
<ellipse fill="none" stroke="black" cx="652" cy="-888.8" rx="173.17" ry="26"/>
<text text-anchor="middle" x="652" y="-885.1" font-family="Times,serif" font-size="14.00">IsCommutativeMonoidObject_rec</text>
</a>
</g>
</g>
<!-- MonoidObject_IsCommutativeMonoidObject_rect -->
<g id="node23" class="node">
<title>MonoidObject_IsCommutativeMonoidObject_rect</title>
<g id="a_node23"><a xlink:href="MonoidObject.html#IsCommutativeMonoidObject_rect" xlink:title="IsCommutativeMonoidObject_rect">
<ellipse fill="#f070d1" stroke="black" cx="479" cy="-681.8" rx="168.97" ry="18"/>
<text text-anchor="middle" x="479" y="-678.1" font-family="Times,serif" font-size="14.00">IsCommutativeMonoidObject_rect</text>
</a>
</g>
</g>
<!-- MonoidObject_IsCommutativeMonoidObject_rec&#45;&gt;MonoidObject_IsCommutativeMonoidObject_rect -->
<g id="edge31" class="edge">
<title>MonoidObject_IsCommutativeMonoidObject_rec&#45;&gt;MonoidObject_IsCommutativeMonoidObject_rect</title>
<path fill="none" stroke="black" d="M630.79,-862.67C597.43,-823.14 533.1,-746.91 499.93,-707.6"/>
<polygon fill="black" stroke="black" points="502.47,-705.18 493.34,-699.8 497.12,-709.7 502.47,-705.18"/>
</g>
<!-- MonoidObject_IsCommutativeMonoidObject_ind -->
<g id="node22" class="node">
<title>MonoidObject_IsCommutativeMonoidObject_ind</title>
<g id="a_node22"><a xlink:href="MonoidObject.html#IsCommutativeMonoidObject_ind" xlink:title="IsCommutativeMonoidObject_ind">
<ellipse fill="#7fffd4" stroke="black" cx="1213" cy="-681.8" rx="165.17" ry="18"/>
<ellipse fill="none" stroke="black" cx="1213" cy="-681.8" rx="169.17" ry="22"/>
<ellipse fill="none" stroke="black" cx="1213" cy="-681.8" rx="173.17" ry="26"/>
<text text-anchor="middle" x="1213" y="-678.1" font-family="Times,serif" font-size="14.00">IsCommutativeMonoidObject_ind</text>
</a>
</g>
</g>
<!-- MonoidObject_IsCommutativeMonoidObject_ind&#45;&gt;MonoidObject_Build_IsCommutativeMonoidObject -->
<g id="edge32" class="edge">
<title>MonoidObject_IsCommutativeMonoidObject_ind&#45;&gt;MonoidObject_Build_IsCommutativeMonoidObject</title>
<path fill="none" stroke="black" d="M1183.09,-656.07C1134.96,-616.29 1040.96,-538.59 993.65,-499.49"/>
<polygon fill="black" stroke="black" points="995.59,-496.55 985.65,-492.88 991.13,-501.94 995.59,-496.55"/>
</g>
<!-- MonoidObject_IsCommutativeMonoidObject_ind&#45;&gt;MonoidObject_IsCommutativeMonoidObject -->
<g id="edge33" class="edge">
<title>MonoidObject_IsCommutativeMonoidObject_ind&#45;&gt;MonoidObject_IsCommutativeMonoidObject</title>
<path fill="none" stroke="black" d="M1252.51,-656.48C1317.7,-616.35 1446.83,-536.85 1509.79,-498.09"/>
<polygon fill="black" stroke="black" points="1511.9,-500.9 1518.58,-492.68 1508.23,-494.94 1511.9,-500.9"/>
</g>
<!-- MonoidObject_IsCommutativeMonoidObject_rect&#45;&gt;MonoidObject_Build_IsCommutativeMonoidObject -->
<g id="edge34" class="edge">
<title>MonoidObject_IsCommutativeMonoidObject_rect&#45;&gt;MonoidObject_Build_IsCommutativeMonoidObject</title>
<path fill="none" stroke="black" d="M518.36,-664.2C606.6,-626.98 820.05,-536.94 916.39,-496.31"/>
<polygon fill="black" stroke="black" points="917.76,-499.53 925.61,-492.42 915.04,-493.08 917.76,-499.53"/>
</g>
<!-- MonoidObject_IsCommutativeMonoidObject_rect&#45;&gt;MonoidObject_IsCommutativeMonoidObject -->
<g id="edge35" class="edge">
<title>MonoidObject_IsCommutativeMonoidObject_rect&#45;&gt;MonoidObject_IsCommutativeMonoidObject</title>
<path fill="none" stroke="black" d="M557.03,-665.81C751.79,-628.39 1258.17,-531.1 1460.58,-492.21"/>
<polygon fill="black" stroke="black" points="1461.4,-495.62 1470.56,-490.3 1460.08,-488.75 1461.4,-495.62"/>
</g>
<!-- MonoidObject_Build_IsCommutativeMonoidObject&#45;&gt;MonoidObject_IsMonoidObject -->
<g id="edge36" class="edge">
<title>MonoidObject_Build_IsCommutativeMonoidObject&#45;&gt;MonoidObject_IsMonoidObject</title>
<path fill="none" stroke="black" d="M1091.15,-462.31C1285.3,-441.72 1643.02,-391.3 1720,-293.8 1829.87,-154.66 1495.19,-103.94 1328.88,-87.65"/>
<polygon fill="black" stroke="black" points="1328.95,-84.14 1318.66,-86.67 1328.28,-91.1 1328.95,-84.14"/>
</g>
<!-- MonoidObject_IsCommutativeMonoidObject&#45;&gt;MonoidObject_IsMonoidObject -->
<g id="edge37" class="edge">
<title>MonoidObject_IsCommutativeMonoidObject&#45;&gt;MonoidObject_IsMonoidObject</title>
<path fill="none" stroke="black" d="M1578.45,-457.15C1647.09,-419.72 1795.88,-325.68 1735,-241.8 1684.76,-172.59 1437.93,-117.58 1313.29,-93.7"/>
<polygon fill="black" stroke="black" points="1313.92,-90.26 1303.44,-91.83 1312.61,-97.14 1313.92,-90.26"/>
</g>
<!-- MonoidObject_mo_right_unit -->
<g id="node26" class="node">
<title>MonoidObject_mo_right_unit</title>
<g id="a_node26"><a xlink:href="MonoidObject.html#mo_right_unit" xlink:title="mo_right_unit">
<ellipse fill="#f070d1" stroke="black" cx="1418" cy="-267.8" rx="75.3" ry="18"/>
<ellipse fill="none" stroke="black" cx="1418" cy="-267.8" rx="79.29" ry="22"/>
<ellipse fill="none" stroke="black" cx="1418" cy="-267.8" rx="83.29" ry="26"/>
<text text-anchor="middle" x="1418" y="-264.1" font-family="Times,serif" font-size="14.00">mo_right_unit</text>
</a>
</g>
</g>
<!-- MonoidObject_mo_right_unit&#45;&gt;MonoidObject_IsMonoidObject -->
<g id="edge38" class="edge">
<title>MonoidObject_mo_right_unit&#45;&gt;MonoidObject_IsMonoidObject</title>
<path fill="none" stroke="black" d="M1394.86,-242.49C1360.97,-206.87 1298.19,-140.9 1264.24,-105.23"/>
<polygon fill="black" stroke="black" points="1266.49,-102.51 1257.06,-97.68 1261.42,-107.34 1266.49,-102.51"/>
</g>
<!-- MonoidObject_mo_left_unit -->
<g id="node27" class="node">
<title>MonoidObject_mo_left_unit</title>
<g id="a_node27"><a xlink:href="MonoidObject.html#mo_left_unit" xlink:title="mo_left_unit">
<ellipse fill="#f070d1" stroke="black" cx="1241" cy="-267.8" rx="67.68" ry="18"/>
<ellipse fill="none" stroke="black" cx="1241" cy="-267.8" rx="71.68" ry="22"/>
<ellipse fill="none" stroke="black" cx="1241" cy="-267.8" rx="75.69" ry="26"/>
<text text-anchor="middle" x="1241" y="-264.1" font-family="Times,serif" font-size="14.00">mo_left_unit</text>
</a>
</g>
</g>
<!-- MonoidObject_mo_left_unit&#45;&gt;MonoidObject_IsMonoidObject -->
<g id="edge39" class="edge">
<title>MonoidObject_mo_left_unit&#45;&gt;MonoidObject_IsMonoidObject</title>
<path fill="none" stroke="black" d="M1241,-241.72C1241,-206.94 1241,-144.3 1241,-108.29"/>
<polygon fill="black" stroke="black" points="1244.5,-108.03 1241,-98.03 1237.5,-108.03 1244.5,-108.03"/>
</g>
<!-- MonoidObject_mo_assoc -->
<g id="node28" class="node">
<title>MonoidObject_mo_assoc</title>
<g id="a_node28"><a xlink:href="MonoidObject.html#mo_assoc" xlink:title="mo_assoc">
<ellipse fill="#f070d1" stroke="black" cx="1085" cy="-267.8" rx="54.68" ry="18"/>
<ellipse fill="none" stroke="black" cx="1085" cy="-267.8" rx="58.68" ry="22"/>
<ellipse fill="none" stroke="black" cx="1085" cy="-267.8" rx="62.69" ry="26"/>
<text text-anchor="middle" x="1085" y="-264.1" font-family="Times,serif" font-size="14.00">mo_assoc</text>
</a>
</g>
</g>
<!-- MonoidObject_mo_assoc&#45;&gt;MonoidObject_IsMonoidObject -->
<g id="edge40" class="edge">
<title>MonoidObject_mo_assoc&#45;&gt;MonoidObject_IsMonoidObject</title>
<path fill="none" stroke="black" d="M1105.07,-242.87C1134.71,-207.53 1189.9,-141.73 1220.04,-105.79"/>
<polygon fill="black" stroke="black" points="1223.03,-107.67 1226.78,-97.76 1217.67,-103.17 1223.03,-107.67"/>
</g>
<!-- MonoidObject_mo_unit -->
<g id="node29" class="node">
<title>MonoidObject_mo_unit</title>
<g id="a_node29"><a xlink:href="MonoidObject.html#mo_unit" xlink:title="mo_unit">
<ellipse fill="#f070d1" stroke="black" cx="948" cy="-267.8" rx="48.18" ry="18"/>
<ellipse fill="none" stroke="black" cx="948" cy="-267.8" rx="52.18" ry="22"/>
<ellipse fill="none" stroke="black" cx="948" cy="-267.8" rx="56.19" ry="26"/>
<text text-anchor="middle" x="948" y="-264.1" font-family="Times,serif" font-size="14.00">mo_unit</text>
</a>
</g>
</g>
<!-- MonoidObject_mo_unit&#45;&gt;MonoidObject_IsMonoidObject -->
<g id="edge41" class="edge">
<title>MonoidObject_mo_unit&#45;&gt;MonoidObject_IsMonoidObject</title>
<path fill="none" stroke="black" d="M980.19,-246.36C1035.79,-211.07 1149.32,-139 1206.49,-102.71"/>
<polygon fill="black" stroke="black" points="1208.59,-105.52 1215.16,-97.21 1204.84,-99.61 1208.59,-105.52"/>
</g>
<!-- MonoidObject_mo_mult -->
<g id="node30" class="node">
<title>MonoidObject_mo_mult</title>
<g id="a_node30"><a xlink:href="MonoidObject.html#mo_mult" xlink:title="mo_mult">
<ellipse fill="#f070d1" stroke="black" cx="815" cy="-267.8" rx="50.86" ry="18"/>
<ellipse fill="none" stroke="black" cx="815" cy="-267.8" rx="54.88" ry="22"/>
<ellipse fill="none" stroke="black" cx="815" cy="-267.8" rx="58.89" ry="26"/>
<text text-anchor="middle" x="815" y="-264.1" font-family="Times,serif" font-size="14.00">mo_mult</text>
</a>
</g>
</g>
<!-- MonoidObject_mo_mult&#45;&gt;MonoidObject_IsMonoidObject -->
<g id="edge42" class="edge">
<title>MonoidObject_mo_mult&#45;&gt;MonoidObject_IsMonoidObject</title>
<path fill="none" stroke="black" d="M855.85,-248.97C936.06,-213.95 1113.54,-136.45 1196.56,-100.2"/>
<polygon fill="black" stroke="black" points="1197.97,-103.41 1205.73,-96.2 1195.17,-97 1197.97,-103.41"/>
</g>
<!-- MonoidObject_IsMonoidObject_sind -->
<g id="node31" class="node">
<title>MonoidObject_IsMonoidObject_sind</title>
<g id="a_node31"><a xlink:href="MonoidObject.html#IsMonoidObject_sind" xlink:title="IsMonoidObject_sind">
<ellipse fill="#f070d1" stroke="black" cx="392" cy="-267.8" rx="107.79" ry="18"/>
<ellipse fill="none" stroke="black" cx="392" cy="-267.8" rx="111.78" ry="22"/>
<ellipse fill="none" stroke="black" cx="392" cy="-267.8" rx="115.78" ry="26"/>
<text text-anchor="middle" x="392" y="-264.1" font-family="Times,serif" font-size="14.00">IsMonoidObject_sind</text>
</a>
</g>
</g>
<!-- MonoidObject_IsMonoidObject_sind&#45;&gt;MonoidObject_Build_IsMonoidObject -->
<g id="edge43" class="edge">
<title>MonoidObject_IsMonoidObject_sind&#45;&gt;MonoidObject_Build_IsMonoidObject</title>
<path fill="none" stroke="black" d="M375.41,-241.72C351.96,-206.25 309.34,-141.8 285.78,-106.18"/>
<polygon fill="black" stroke="black" points="288.66,-104.19 280.22,-97.78 282.82,-108.05 288.66,-104.19"/>
</g>
<!-- MonoidObject_IsMonoidObject_sind&#45;&gt;MonoidObject_IsMonoidObject -->
<g id="edge44" class="edge">
<title>MonoidObject_IsMonoidObject_sind&#45;&gt;MonoidObject_IsMonoidObject</title>
<path fill="none" stroke="black" d="M473.02,-249.05C640.32,-212.4 1021.14,-128.97 1174.84,-95.3"/>
<polygon fill="black" stroke="black" points="1175.61,-98.71 1184.63,-93.15 1174.12,-91.87 1175.61,-98.71"/>
</g>
<!-- MonoidObject_IsMonoidObject_rec -->
<g id="node32" class="node">
<title>MonoidObject_IsMonoidObject_rec</title>
<g id="a_node32"><a xlink:href="MonoidObject.html#IsMonoidObject_rec" xlink:title="IsMonoidObject_rec">
<ellipse fill="#f070d1" stroke="black" cx="409" cy="-474.8" rx="102.87" ry="18"/>
<ellipse fill="none" stroke="black" cx="409" cy="-474.8" rx="106.88" ry="22"/>
<ellipse fill="none" stroke="black" cx="409" cy="-474.8" rx="110.88" ry="26"/>
<text text-anchor="middle" x="409" y="-471.1" font-family="Times,serif" font-size="14.00">IsMonoidObject_rec</text>
</a>
</g>
</g>
<!-- MonoidObject_IsMonoidObject_rect -->
<g id="node34" class="node">
<title>MonoidObject_IsMonoidObject_rect</title>
<g id="a_node34"><a xlink:href="MonoidObject.html#IsMonoidObject_rect" xlink:title="IsMonoidObject_rect">
<ellipse fill="#f070d1" stroke="black" cx="632" cy="-267.8" rx="106.68" ry="18"/>
<text text-anchor="middle" x="632" y="-264.1" font-family="Times,serif" font-size="14.00">IsMonoidObject_rect</text>
</a>
</g>
</g>
<!-- MonoidObject_IsMonoidObject_rec&#45;&gt;MonoidObject_IsMonoidObject_rect -->
<g id="edge45" class="edge">
<title>MonoidObject_IsMonoidObject_rec&#45;&gt;MonoidObject_IsMonoidObject_rect</title>
<path fill="none" stroke="black" d="M435.46,-449.48C478.58,-409.84 563.47,-331.8 606.18,-292.54"/>
<polygon fill="black" stroke="black" points="608.65,-295.02 613.64,-285.68 603.91,-289.87 608.65,-295.02"/>
</g>
<!-- MonoidObject_IsMonoidObject_ind -->
<g id="node33" class="node">
<title>MonoidObject_IsMonoidObject_ind</title>
<g id="a_node33"><a xlink:href="MonoidObject.html#IsMonoidObject_ind" xlink:title="IsMonoidObject_ind">
<ellipse fill="#7fffd4" stroke="black" cx="147" cy="-267.8" rx="102.87" ry="18"/>
<ellipse fill="none" stroke="black" cx="147" cy="-267.8" rx="106.88" ry="22"/>
<ellipse fill="none" stroke="black" cx="147" cy="-267.8" rx="110.88" ry="26"/>
<text text-anchor="middle" x="147" y="-264.1" font-family="Times,serif" font-size="14.00">IsMonoidObject_ind</text>
</a>
</g>
</g>
<!-- MonoidObject_IsMonoidObject_ind&#45;&gt;MonoidObject_Build_IsMonoidObject -->
<g id="edge46" class="edge">
<title>MonoidObject_IsMonoidObject_ind&#45;&gt;MonoidObject_Build_IsMonoidObject</title>
<path fill="none" stroke="black" d="M163.45,-241.72C186.72,-206.25 228.99,-141.8 252.36,-106.18"/>
<polygon fill="black" stroke="black" points="255.31,-108.06 257.87,-97.78 249.46,-104.22 255.31,-108.06"/>
</g>
<!-- MonoidObject_IsMonoidObject_ind&#45;&gt;MonoidObject_IsMonoidObject -->
<g id="edge47" class="edge">
<title>MonoidObject_IsMonoidObject_ind&#45;&gt;MonoidObject_IsMonoidObject</title>
<path fill="none" stroke="black" d="M226.63,-249.73C240.08,-246.98 253.93,-244.24 267,-241.8 600.14,-179.59 999.74,-117.43 1164.38,-92.36"/>
<polygon fill="black" stroke="black" points="1165.05,-95.8 1174.41,-90.83 1163.99,-88.88 1165.05,-95.8"/>
</g>
<!-- MonoidObject_IsMonoidObject_rect&#45;&gt;MonoidObject_Build_IsMonoidObject -->
<g id="edge48" class="edge">
<title>MonoidObject_IsMonoidObject_rect&#45;&gt;MonoidObject_Build_IsMonoidObject</title>
<path fill="none" stroke="black" d="M600.1,-250.46C534.16,-216.67 382.87,-139.15 309.88,-101.75"/>
<polygon fill="black" stroke="black" points="311.45,-98.62 300.95,-97.17 308.26,-104.85 311.45,-98.62"/>
</g>
<!-- MonoidObject_IsMonoidObject_rect&#45;&gt;MonoidObject_IsMonoidObject -->
<g id="edge49" class="edge">
<title>MonoidObject_IsMonoidObject_rect&#45;&gt;MonoidObject_IsMonoidObject</title>
<path fill="none" stroke="black" d="M681.06,-251.82C793.12,-217.59 1067.24,-133.87 1185.36,-97.8"/>
<polygon fill="black" stroke="black" points="1186.4,-101.14 1194.94,-94.87 1184.36,-94.44 1186.4,-101.14"/>
</g>
</g>
</svg>
