<?xml version="1.0" encoding="UTF-8" standalone="no"?>
<!DOCTYPE svg PUBLIC "-//W3C//DTD SVG 1.1//EN"
 "http://www.w3.org/Graphics/SVG/1.1/DTD/svg11.dtd">
<!-- Generated by graphviz version 2.43.0 (0)
 -->
<!-- Title: HoTT_Algebra_Groups_QuotientGroup Pages: 1 -->
<svg width="1758pt" height="883pt"
 viewBox="0.00 0.00 1758.00 883.00" xmlns="http://www.w3.org/2000/svg" xmlns:xlink="http://www.w3.org/1999/xlink">
<g id="graph0" class="graph" transform="scale(1 1) rotate(0) translate(4 879)">
<title>HoTT_Algebra_Groups_QuotientGroup</title>
<polygon fill="white" stroke="transparent" points="-4,4 -4,-879 1754,-879 1754,4 -4,4"/>
<g id="clust1" class="cluster">
<title>cluster_QuotientGroup</title>
<polygon fill="#ffffc3" stroke="black" points="8.8,-8 8.8,-867 1741.2,-867 1741.2,-8 8.8,-8"/>
<text text-anchor="middle" x="70.3" y="-851.8" font-family="Times,serif" font-size="14.00">QuotientGroup</text>
</g>
<!-- QuotientGroup_grp_quotient_trivial -->
<g id="node1" class="node">
<title>QuotientGroup_grp_quotient_trivial</title>
<g id="a_node1"><a xlink:href="QuotientGroup.html#grp_quotient_trivial" xlink:title="grp_quotient_trivial">
<ellipse fill="#f070d1" stroke="black" cx="1190.49" cy="-810" rx="102.87" ry="18"/>
<ellipse fill="none" stroke="black" cx="1190.49" cy="-810" rx="106.88" ry="22"/>
<ellipse fill="none" stroke="black" cx="1190.49" cy="-810" rx="110.88" ry="26"/>
<text text-anchor="middle" x="1190.49" y="-806.3" font-family="Times,serif" font-size="14.00">grp_quotient_trivial</text>
</a>
</g>
</g>
<!-- QuotientGroup_catie_grp_quotient_map_trivial -->
<g id="node2" class="node">
<title>QuotientGroup_catie_grp_quotient_map_trivial</title>
<g id="a_node2"><a xlink:href="QuotientGroup.html#catie_grp_quotient_map_trivial" xlink:title="catie_grp_quotient_map_trivial">
<ellipse fill="#f070d1" stroke="black" cx="1190.49" cy="-722" rx="153.27" ry="18"/>
<text text-anchor="middle" x="1190.49" y="-718.3" font-family="Times,serif" font-size="14.00">catie_grp_quotient_map_trivial</text>
</a>
</g>
</g>
<!-- QuotientGroup_grp_quotient_trivial&#45;&gt;QuotientGroup_catie_grp_quotient_map_trivial -->
<g id="edge1" class="edge">
<title>QuotientGroup_grp_quotient_trivial&#45;&gt;QuotientGroup_catie_grp_quotient_map_trivial</title>
<path fill="none" stroke="black" d="M1190.49,-783.66C1190.49,-773.11 1190.49,-760.84 1190.49,-750.1"/>
<polygon fill="black" stroke="black" points="1193.99,-750 1190.49,-740 1186.99,-750 1193.99,-750"/>
</g>
<!-- QuotientGroup_grp_quotient_ind_hprop -->
<g id="node13" class="node">
<title>QuotientGroup_grp_quotient_ind_hprop</title>
<g id="a_node13"><a xlink:href="QuotientGroup.html#grp_quotient_ind_hprop" xlink:title="grp_quotient_ind_hprop">
<ellipse fill="#f070d1" stroke="black" cx="1294.49" cy="-634" rx="120.78" ry="18"/>
<text text-anchor="middle" x="1294.49" y="-630.3" font-family="Times,serif" font-size="14.00">grp_quotient_ind_hprop</text>
</a>
</g>
</g>
<!-- QuotientGroup_catie_grp_quotient_map_trivial&#45;&gt;QuotientGroup_grp_quotient_ind_hprop -->
<g id="edge2" class="edge">
<title>QuotientGroup_catie_grp_quotient_map_trivial&#45;&gt;QuotientGroup_grp_quotient_ind_hprop</title>
<path fill="none" stroke="black" d="M1211.04,-704.01C1226.71,-691.05 1248.48,-673.05 1265.85,-658.68"/>
<polygon fill="black" stroke="black" points="1268.51,-661.03 1273.99,-651.96 1264.05,-655.63 1268.51,-661.03"/>
</g>
<!-- QuotientGroup_grp_quotient_rec -->
<g id="node14" class="node">
<title>QuotientGroup_grp_quotient_rec</title>
<g id="a_node14"><a xlink:href="QuotientGroup.html#grp_quotient_rec" xlink:title="grp_quotient_rec">
<ellipse fill="#f070d1" stroke="black" cx="722.49" cy="-546" rx="89.08" ry="18"/>
<text text-anchor="middle" x="722.49" y="-542.3" font-family="Times,serif" font-size="14.00">grp_quotient_rec</text>
</a>
</g>
</g>
<!-- QuotientGroup_catie_grp_quotient_map_trivial&#45;&gt;QuotientGroup_grp_quotient_rec -->
<g id="edge3" class="edge">
<title>QuotientGroup_catie_grp_quotient_map_trivial&#45;&gt;QuotientGroup_grp_quotient_rec</title>
<path fill="none" stroke="black" d="M1071.11,-710.68C900.72,-695.68 607.32,-668.68 599.49,-660 584.01,-642.84 587.31,-627.64 599.49,-608 612.52,-587 635.17,-573 657.51,-563.78"/>
<polygon fill="black" stroke="black" points="658.97,-566.97 667.04,-560.12 656.45,-560.44 658.97,-566.97"/>
</g>
<!-- QuotientGroup_grp_kernel_quotient_iso -->
<g id="node3" class="node">
<title>QuotientGroup_grp_kernel_quotient_iso</title>
<g id="a_node3"><a xlink:href="QuotientGroup.html#grp_kernel_quotient_iso" xlink:title="grp_kernel_quotient_iso">
<ellipse fill="#f070d1" stroke="black" cx="1589.49" cy="-634" rx="121.58" ry="18"/>
<ellipse fill="none" stroke="black" cx="1589.49" cy="-634" rx="125.58" ry="22"/>
<ellipse fill="none" stroke="black" cx="1589.49" cy="-634" rx="129.58" ry="26"/>
<text text-anchor="middle" x="1589.49" y="-630.3" font-family="Times,serif" font-size="14.00">grp_kernel_quotient_iso</text>
</a>
</g>
</g>
<!-- QuotientGroup_grp_quotient_map -->
<g id="node15" class="node">
<title>QuotientGroup_grp_quotient_map</title>
<g id="a_node15"><a xlink:href="QuotientGroup.html#grp_quotient_map" xlink:title="grp_quotient_map">
<ellipse fill="#f070d1" stroke="black" cx="974.49" cy="-546" rx="94.78" ry="18"/>
<text text-anchor="middle" x="974.49" y="-542.3" font-family="Times,serif" font-size="14.00">grp_quotient_map</text>
</a>
</g>
</g>
<!-- QuotientGroup_grp_kernel_quotient_iso&#45;&gt;QuotientGroup_grp_quotient_map -->
<g id="edge4" class="edge">
<title>QuotientGroup_grp_kernel_quotient_iso&#45;&gt;QuotientGroup_grp_quotient_map</title>
<path fill="none" stroke="black" d="M1490.11,-617.3C1468.5,-614.06 1445.75,-610.79 1424.49,-608 1281.28,-589.18 1244.25,-593.97 1101.49,-572 1083.03,-569.16 1063.17,-565.53 1044.77,-561.92"/>
<polygon fill="black" stroke="black" points="1045.2,-558.44 1034.71,-559.92 1043.84,-565.3 1045.2,-558.44"/>
</g>
<!-- QuotientGroup_finite_quotientgroup -->
<g id="node4" class="node">
<title>QuotientGroup_finite_quotientgroup</title>
<g id="a_node4"><a xlink:href="QuotientGroup.html#finite_quotientgroup" xlink:title="finite_quotientgroup">
<ellipse fill="#f070d1" stroke="black" cx="1223.49" cy="-546" rx="105.1" ry="18"/>
<ellipse fill="none" stroke="black" cx="1223.49" cy="-546" rx="109.09" ry="22"/>
<ellipse fill="none" stroke="black" cx="1223.49" cy="-546" rx="113.08" ry="26"/>
<text text-anchor="middle" x="1223.49" y="-542.3" font-family="Times,serif" font-size="14.00">finite_quotientgroup</text>
</a>
</g>
</g>
<!-- QuotientGroup_QuotientGroup -->
<g id="node16" class="node">
<title>QuotientGroup_QuotientGroup</title>
<g id="a_node16"><a xlink:href="QuotientGroup.html#QuotientGroup" xlink:title="QuotientGroup">
<ellipse fill="#f070d1" stroke="black" cx="724.49" cy="-466" rx="79.89" ry="18"/>
<text text-anchor="middle" x="724.49" y="-462.3" font-family="Times,serif" font-size="14.00">QuotientGroup</text>
</a>
</g>
</g>
<!-- QuotientGroup_finite_quotientgroup&#45;&gt;QuotientGroup_QuotientGroup -->
<g id="edge5" class="edge">
<title>QuotientGroup_finite_quotientgroup&#45;&gt;QuotientGroup_QuotientGroup</title>
<path fill="none" stroke="black" d="M1135.75,-529.55C1116.87,-526.32 1097.03,-522.99 1078.49,-520 982.73,-504.58 872.16,-488.26 800.42,-477.87"/>
<polygon fill="black" stroke="black" points="800.53,-474.35 790.13,-476.38 799.52,-481.28 800.53,-474.35"/>
</g>
<!-- QuotientGroup_grp_first_iso -->
<g id="node5" class="node">
<title>QuotientGroup_grp_first_iso</title>
<g id="a_node5"><a xlink:href="QuotientGroup.html#grp_first_iso" xlink:title="grp_first_iso">
<ellipse fill="#f070d1" stroke="black" cx="432.49" cy="-810" rx="67.68" ry="18"/>
<ellipse fill="none" stroke="black" cx="432.49" cy="-810" rx="71.68" ry="22"/>
<ellipse fill="none" stroke="black" cx="432.49" cy="-810" rx="75.69" ry="26"/>
<text text-anchor="middle" x="432.49" y="-806.3" font-family="Times,serif" font-size="14.00">grp_first_iso</text>
</a>
</g>
</g>
<!-- QuotientGroup_isequiv_grp_image_quotient -->
<g id="node6" class="node">
<title>QuotientGroup_isequiv_grp_image_quotient</title>
<g id="a_node6"><a xlink:href="QuotientGroup.html#isequiv_grp_image_quotient" xlink:title="isequiv_grp_image_quotient">
<ellipse fill="#f070d1" stroke="black" cx="432.49" cy="-722" rx="140.28" ry="18"/>
<text text-anchor="middle" x="432.49" y="-718.3" font-family="Times,serif" font-size="14.00">isequiv_grp_image_quotient</text>
</a>
</g>
</g>
<!-- QuotientGroup_grp_first_iso&#45;&gt;QuotientGroup_isequiv_grp_image_quotient -->
<g id="edge6" class="edge">
<title>QuotientGroup_grp_first_iso&#45;&gt;QuotientGroup_isequiv_grp_image_quotient</title>
<path fill="none" stroke="black" d="M432.49,-783.66C432.49,-773.11 432.49,-760.84 432.49,-750.1"/>
<polygon fill="black" stroke="black" points="435.99,-750 432.49,-740 428.99,-750 435.99,-750"/>
</g>
<!-- QuotientGroup_grp_image_quotient -->
<g id="node7" class="node">
<title>QuotientGroup_grp_image_quotient</title>
<g id="a_node7"><a xlink:href="QuotientGroup.html#grp_image_quotient" xlink:title="grp_image_quotient">
<ellipse fill="#f070d1" stroke="black" cx="442.49" cy="-634" rx="102.88" ry="18"/>
<text text-anchor="middle" x="442.49" y="-630.3" font-family="Times,serif" font-size="14.00">grp_image_quotient</text>
</a>
</g>
</g>
<!-- QuotientGroup_isequiv_grp_image_quotient&#45;&gt;QuotientGroup_grp_image_quotient -->
<g id="edge7" class="edge">
<title>QuotientGroup_isequiv_grp_image_quotient&#45;&gt;QuotientGroup_grp_image_quotient</title>
<path fill="none" stroke="black" d="M434.51,-703.6C435.89,-691.75 437.74,-675.82 439.32,-662.29"/>
<polygon fill="black" stroke="black" points="442.83,-662.42 440.5,-652.08 435.87,-661.61 442.83,-662.42"/>
</g>
<!-- QuotientGroup_grp_image_quotient&#45;&gt;QuotientGroup_grp_quotient_rec -->
<g id="edge8" class="edge">
<title>QuotientGroup_grp_image_quotient&#45;&gt;QuotientGroup_grp_quotient_rec</title>
<path fill="none" stroke="black" d="M490.94,-618.12C539.62,-603.17 614.58,-580.15 665.94,-564.37"/>
<polygon fill="black" stroke="black" points="667.03,-567.7 675.56,-561.41 664.98,-561 667.03,-567.7"/>
</g>
<!-- QuotientGroup_equiv_grp_quotient_ump -->
<g id="node8" class="node">
<title>QuotientGroup_equiv_grp_quotient_ump</title>
<g id="a_node8"><a xlink:href="QuotientGroup.html#equiv_grp_quotient_ump" xlink:title="equiv_grp_quotient_ump">
<ellipse fill="#f070d1" stroke="black" cx="752.49" cy="-722" rx="124.59" ry="18"/>
<ellipse fill="none" stroke="black" cx="752.49" cy="-722" rx="128.58" ry="22"/>
<ellipse fill="none" stroke="black" cx="752.49" cy="-722" rx="132.58" ry="26"/>
<text text-anchor="middle" x="752.49" y="-718.3" font-family="Times,serif" font-size="14.00">equiv_grp_quotient_ump</text>
</a>
</g>
</g>
<!-- QuotientGroup_grp_quotient_rec_beta -->
<g id="node11" class="node">
<title>QuotientGroup_grp_quotient_rec_beta</title>
<g id="a_node11"><a xlink:href="QuotientGroup.html#grp_quotient_rec_beta" xlink:title="grp_quotient_rec_beta">
<ellipse fill="#f070d1" stroke="black" cx="722.49" cy="-634" rx="114.28" ry="18"/>
<text text-anchor="middle" x="722.49" y="-630.3" font-family="Times,serif" font-size="14.00">grp_quotient_rec_beta</text>
</a>
</g>
</g>
<!-- QuotientGroup_equiv_grp_quotient_ump&#45;&gt;QuotientGroup_grp_quotient_rec_beta -->
<g id="edge9" class="edge">
<title>QuotientGroup_equiv_grp_quotient_ump&#45;&gt;QuotientGroup_grp_quotient_rec_beta</title>
<path fill="none" stroke="black" d="M743.65,-695.66C739.93,-685 735.6,-672.58 731.83,-661.77"/>
<polygon fill="black" stroke="black" points="735.02,-660.29 728.42,-652 728.41,-662.6 735.02,-660.29"/>
</g>
<!-- QuotientGroup_grp_iso_quotient_normal -->
<g id="node9" class="node">
<title>QuotientGroup_grp_iso_quotient_normal</title>
<g id="a_node9"><a xlink:href="QuotientGroup.html#grp_iso_quotient_normal" xlink:title="grp_iso_quotient_normal">
<ellipse fill="#f070d1" stroke="black" cx="163.49" cy="-634" rx="124.59" ry="18"/>
<ellipse fill="none" stroke="black" cx="163.49" cy="-634" rx="128.58" ry="22"/>
<ellipse fill="none" stroke="black" cx="163.49" cy="-634" rx="132.58" ry="26"/>
<text text-anchor="middle" x="163.49" y="-630.3" font-family="Times,serif" font-size="14.00">grp_iso_quotient_normal</text>
</a>
</g>
</g>
<!-- QuotientGroup_QuotientGroup_ -->
<g id="node12" class="node">
<title>QuotientGroup_QuotientGroup_</title>
<g id="a_node12"><a xlink:href="QuotientGroup.html#QuotientGroup'" xlink:title="QuotientGroup&#39;">
<ellipse fill="#f070d1" stroke="black" cx="338.49" cy="-546" rx="82.59" ry="18"/>
<text text-anchor="middle" x="338.49" y="-542.3" font-family="Times,serif" font-size="14.00">QuotientGroup&#39;</text>
</a>
</g>
</g>
<!-- QuotientGroup_grp_iso_quotient_normal&#45;&gt;QuotientGroup_QuotientGroup_ -->
<g id="edge10" class="edge">
<title>QuotientGroup_grp_iso_quotient_normal&#45;&gt;QuotientGroup_QuotientGroup_</title>
<path fill="none" stroke="black" d="M211.31,-609.5C238.26,-596.26 271.58,-579.88 297.35,-567.22"/>
<polygon fill="black" stroke="black" points="299.05,-570.28 306.48,-562.73 295.96,-564 299.05,-570.28"/>
</g>
<!-- QuotientGroup_grp_quotient_rec_beta_ -->
<g id="node10" class="node">
<title>QuotientGroup_grp_quotient_rec_beta_</title>
<g id="a_node10"><a xlink:href="QuotientGroup.html#grp_quotient_rec_beta'" xlink:title="grp_quotient_rec_beta&#39;">
<ellipse fill="#f070d1" stroke="black" cx="1005.49" cy="-634" rx="116.19" ry="18"/>
<ellipse fill="none" stroke="black" cx="1005.49" cy="-634" rx="120.18" ry="22"/>
<ellipse fill="none" stroke="black" cx="1005.49" cy="-634" rx="124.18" ry="26"/>
<text text-anchor="middle" x="1005.49" y="-630.3" font-family="Times,serif" font-size="14.00">grp_quotient_rec_beta&#39;</text>
</a>
</g>
</g>
<!-- QuotientGroup_grp_quotient_rec_beta_&#45;&gt;QuotientGroup_grp_quotient_rec -->
<g id="edge11" class="edge">
<title>QuotientGroup_grp_quotient_rec_beta_&#45;&gt;QuotientGroup_grp_quotient_rec</title>
<path fill="none" stroke="black" d="M936.98,-612.18C888.67,-597.5 824.73,-578.07 779.26,-564.25"/>
<polygon fill="black" stroke="black" points="780.15,-560.86 769.56,-561.31 778.11,-567.56 780.15,-560.86"/>
</g>
<!-- QuotientGroup_grp_quotient_rec_beta_&#45;&gt;QuotientGroup_grp_quotient_map -->
<g id="edge12" class="edge">
<title>QuotientGroup_grp_quotient_rec_beta_&#45;&gt;QuotientGroup_grp_quotient_map</title>
<path fill="none" stroke="black" d="M996.36,-607.66C992.47,-596.89 987.94,-584.33 984.02,-573.44"/>
<polygon fill="black" stroke="black" points="987.3,-572.22 980.62,-564 980.72,-574.6 987.3,-572.22"/>
</g>
<!-- QuotientGroup_grp_quotient_rec_beta&#45;&gt;QuotientGroup_grp_quotient_rec -->
<g id="edge13" class="edge">
<title>QuotientGroup_grp_quotient_rec_beta&#45;&gt;QuotientGroup_grp_quotient_rec</title>
<path fill="none" stroke="black" d="M722.49,-615.6C722.49,-603.75 722.49,-587.82 722.49,-574.29"/>
<polygon fill="black" stroke="black" points="725.99,-574.08 722.49,-564.08 718.99,-574.08 725.99,-574.08"/>
</g>
<!-- QuotientGroup_grp_quotient_rec_beta&#45;&gt;QuotientGroup_grp_quotient_map -->
<g id="edge14" class="edge">
<title>QuotientGroup_grp_quotient_rec_beta&#45;&gt;QuotientGroup_grp_quotient_map</title>
<path fill="none" stroke="black" d="M768.13,-617.43C811.07,-602.77 875.39,-580.82 920.79,-565.33"/>
<polygon fill="black" stroke="black" points="922.13,-568.57 930.46,-562.03 919.87,-561.94 922.13,-568.57"/>
</g>
<!-- QuotientGroup_QuotientGroup_&#45;&gt;QuotientGroup_QuotientGroup -->
<g id="edge15" class="edge">
<title>QuotientGroup_QuotientGroup_&#45;&gt;QuotientGroup_QuotientGroup</title>
<path fill="none" stroke="black" d="M397.12,-533.15C467.01,-519.03 583.59,-495.47 657.13,-480.61"/>
<polygon fill="black" stroke="black" points="658.1,-483.99 667.21,-478.58 656.71,-477.13 658.1,-483.99"/>
</g>
<!-- QuotientGroup_grp_quotient_ind_hprop&#45;&gt;QuotientGroup_grp_quotient_map -->
<g id="edge16" class="edge">
<title>QuotientGroup_grp_quotient_ind_hprop&#45;&gt;QuotientGroup_grp_quotient_map</title>
<path fill="none" stroke="black" d="M1238.75,-618.02C1182.38,-602.87 1095.43,-579.5 1036.82,-563.75"/>
<polygon fill="black" stroke="black" points="1037.51,-560.31 1026.94,-561.1 1035.69,-567.07 1037.51,-560.31"/>
</g>
<!-- QuotientGroup_grp_quotient_rec&#45;&gt;QuotientGroup_QuotientGroup -->
<g id="edge17" class="edge">
<title>QuotientGroup_grp_quotient_rec&#45;&gt;QuotientGroup_QuotientGroup</title>
<path fill="none" stroke="black" d="M722.93,-527.69C723.19,-517.89 723.51,-505.42 723.79,-494.33"/>
<polygon fill="black" stroke="black" points="727.29,-494.35 724.05,-484.26 720.29,-494.17 727.29,-494.35"/>
</g>
<!-- QuotientGroup_grp_quotient_map&#45;&gt;QuotientGroup_QuotientGroup -->
<g id="edge18" class="edge">
<title>QuotientGroup_grp_quotient_map&#45;&gt;QuotientGroup_QuotientGroup</title>
<path fill="none" stroke="black" d="M927.47,-530.33C885.26,-517.16 823.29,-497.83 778.94,-483.99"/>
<polygon fill="black" stroke="black" points="779.79,-480.59 769.2,-480.95 777.7,-487.27 779.79,-480.59"/>
</g>
<!-- QuotientGroup_iscongruence_in_cosetL -->
<g id="node18" class="node">
<title>QuotientGroup_iscongruence_in_cosetL</title>
<g id="a_node18"><a xlink:href="QuotientGroup.html#iscongruence_in_cosetL" xlink:title="iscongruence_in_cosetL">
<ellipse fill="#f070d1" stroke="black" cx="447.49" cy="-394" rx="120.48" ry="18"/>
<text text-anchor="middle" x="447.49" y="-390.3" font-family="Times,serif" font-size="14.00">iscongruence_in_cosetL</text>
</a>
</g>
</g>
<!-- QuotientGroup_QuotientGroup&#45;&gt;QuotientGroup_iscongruence_in_cosetL -->
<g id="edge19" class="edge">
<title>QuotientGroup_QuotientGroup&#45;&gt;QuotientGroup_iscongruence_in_cosetL</title>
<path fill="none" stroke="black" d="M673.36,-452.08C629.05,-440.88 564.57,-424.59 515.83,-412.27"/>
<polygon fill="black" stroke="black" points="516.55,-408.84 506,-409.78 514.83,-415.63 516.55,-408.84"/>
</g>
<!-- QuotientGroup_isgroup_quotientgroup -->
<g id="node19" class="node">
<title>QuotientGroup_isgroup_quotientgroup</title>
<g id="a_node19"><a xlink:href="QuotientGroup.html#isgroup_quotientgroup" xlink:title="isgroup_quotientgroup">
<ellipse fill="#f070d1" stroke="black" cx="728.49" cy="-394" rx="116.18" ry="18"/>
<text text-anchor="middle" x="728.49" y="-390.3" font-family="Times,serif" font-size="14.00">isgroup_quotientgroup</text>
</a>
</g>
</g>
<!-- QuotientGroup_QuotientGroup&#45;&gt;QuotientGroup_isgroup_quotientgroup -->
<g id="edge20" class="edge">
<title>QuotientGroup_QuotientGroup&#45;&gt;QuotientGroup_isgroup_quotientgroup</title>
<path fill="none" stroke="black" d="M725.48,-447.7C725.92,-439.98 726.45,-430.71 726.94,-422.11"/>
<polygon fill="black" stroke="black" points="730.44,-422.29 727.51,-412.1 723.45,-421.89 730.44,-422.29"/>
</g>
<!-- QuotientGroup_iscongruence_in_cosetR -->
<g id="node17" class="node">
<title>QuotientGroup_iscongruence_in_cosetR</title>
<g id="a_node17"><a xlink:href="QuotientGroup.html#iscongruence_in_cosetR" xlink:title="iscongruence_in_cosetR">
<ellipse fill="#f070d1" stroke="black" cx="178.49" cy="-810" rx="120.79" ry="18"/>
<ellipse fill="none" stroke="black" cx="178.49" cy="-810" rx="124.78" ry="22"/>
<ellipse fill="none" stroke="black" cx="178.49" cy="-810" rx="128.78" ry="26"/>
<text text-anchor="middle" x="178.49" y="-806.3" font-family="Times,serif" font-size="14.00">iscongruence_in_cosetR</text>
</a>
</g>
</g>
<!-- QuotientGroup_quotientgroup_rightinverse -->
<g id="node20" class="node">
<title>QuotientGroup_quotientgroup_rightinverse</title>
<g id="a_node20"><a xlink:href="QuotientGroup.html#quotientgroup_rightinverse" xlink:title="quotientgroup_rightinverse">
<ellipse fill="#f070d1" stroke="black" cx="411.49" cy="-178" rx="138.38" ry="18"/>
<text text-anchor="middle" x="411.49" y="-174.3" font-family="Times,serif" font-size="14.00">quotientgroup_rightinverse</text>
</a>
</g>
</g>
<!-- QuotientGroup_isgroup_quotientgroup&#45;&gt;QuotientGroup_quotientgroup_rightinverse -->
<g id="edge21" class="edge">
<title>QuotientGroup_isgroup_quotientgroup&#45;&gt;QuotientGroup_quotientgroup_rightinverse</title>
<path fill="none" stroke="black" d="M703.88,-376.39C647.47,-338.31 508.8,-244.69 444.82,-201.5"/>
<polygon fill="black" stroke="black" points="446.55,-198.45 436.3,-195.75 442.63,-204.25 446.55,-198.45"/>
</g>
<!-- QuotientGroup_quotientgroup_leftinverse -->
<g id="node21" class="node">
<title>QuotientGroup_quotientgroup_leftinverse</title>
<g id="a_node21"><a xlink:href="QuotientGroup.html#quotientgroup_leftinverse" xlink:title="quotientgroup_leftinverse">
<ellipse fill="#f070d1" stroke="black" cx="728.49" cy="-178" rx="131.08" ry="18"/>
<text text-anchor="middle" x="728.49" y="-174.3" font-family="Times,serif" font-size="14.00">quotientgroup_leftinverse</text>
</a>
</g>
</g>
<!-- QuotientGroup_isgroup_quotientgroup&#45;&gt;QuotientGroup_quotientgroup_leftinverse -->
<g id="edge22" class="edge">
<title>QuotientGroup_isgroup_quotientgroup&#45;&gt;QuotientGroup_quotientgroup_leftinverse</title>
<path fill="none" stroke="black" d="M728.49,-375.85C728.49,-338.83 728.49,-251.18 728.49,-206.39"/>
<polygon fill="black" stroke="black" points="731.99,-206.23 728.49,-196.23 724.99,-206.23 731.99,-206.23"/>
</g>
<!-- QuotientGroup_ismonoid_quotientgroup -->
<g id="node22" class="node">
<title>QuotientGroup_ismonoid_quotientgroup</title>
<g id="a_node22"><a xlink:href="QuotientGroup.html#ismonoid_quotientgroup" xlink:title="ismonoid_quotientgroup">
<ellipse fill="#f070d1" stroke="black" cx="1147.49" cy="-322" rx="123.48" ry="18"/>
<text text-anchor="middle" x="1147.49" y="-318.3" font-family="Times,serif" font-size="14.00">ismonoid_quotientgroup</text>
</a>
</g>
</g>
<!-- QuotientGroup_isgroup_quotientgroup&#45;&gt;QuotientGroup_ismonoid_quotientgroup -->
<g id="edge23" class="edge">
<title>QuotientGroup_isgroup_quotientgroup&#45;&gt;QuotientGroup_ismonoid_quotientgroup</title>
<path fill="none" stroke="black" d="M804.37,-380.32C876.25,-368.31 984.16,-350.29 1059.72,-337.66"/>
<polygon fill="black" stroke="black" points="1060.41,-341.1 1069.69,-336 1059.25,-334.19 1060.41,-341.1"/>
</g>
<!-- QuotientGroup_congquot_inverse -->
<g id="node27" class="node">
<title>QuotientGroup_congquot_inverse</title>
<g id="a_node27"><a xlink:href="QuotientGroup.html#congquot_inverse" xlink:title="congquot_inverse">
<ellipse fill="#f070d1" stroke="black" cx="562.49" cy="-106" rx="92.08" ry="18"/>
<text text-anchor="middle" x="562.49" y="-102.3" font-family="Times,serif" font-size="14.00">congquot_inverse</text>
</a>
</g>
</g>
<!-- QuotientGroup_quotientgroup_rightinverse&#45;&gt;QuotientGroup_congquot_inverse -->
<g id="edge24" class="edge">
<title>QuotientGroup_quotientgroup_rightinverse&#45;&gt;QuotientGroup_congquot_inverse</title>
<path fill="none" stroke="black" d="M446.89,-160.59C468.5,-150.57 496.27,-137.7 519.18,-127.08"/>
<polygon fill="black" stroke="black" points="520.75,-130.21 528.35,-122.83 517.8,-123.86 520.75,-130.21"/>
</g>
<!-- QuotientGroup_congquot_mon_unit -->
<g id="node28" class="node">
<title>QuotientGroup_congquot_mon_unit</title>
<g id="a_node28"><a xlink:href="QuotientGroup.html#congquot_mon_unit" xlink:title="congquot_mon_unit">
<ellipse fill="#f070d1" stroke="black" cx="794.49" cy="-106" rx="100.98" ry="18"/>
<text text-anchor="middle" x="794.49" y="-102.3" font-family="Times,serif" font-size="14.00">congquot_mon_unit</text>
</a>
</g>
</g>
<!-- QuotientGroup_quotientgroup_rightinverse&#45;&gt;QuotientGroup_congquot_mon_unit -->
<g id="edge25" class="edge">
<title>QuotientGroup_quotientgroup_rightinverse&#45;&gt;QuotientGroup_congquot_mon_unit</title>
<path fill="none" stroke="black" d="M488.08,-163C554.42,-150.88 649.96,-133.42 716.66,-121.23"/>
<polygon fill="black" stroke="black" points="717.49,-124.63 726.7,-119.39 716.23,-117.75 717.49,-124.63"/>
</g>
<!-- QuotientGroup_congquot_sgop -->
<g id="node29" class="node">
<title>QuotientGroup_congquot_sgop</title>
<g id="a_node29"><a xlink:href="QuotientGroup.html#congquot_sgop" xlink:title="congquot_sgop">
<ellipse fill="#f070d1" stroke="black" cx="1013.49" cy="-106" rx="79.89" ry="18"/>
<text text-anchor="middle" x="1013.49" y="-102.3" font-family="Times,serif" font-size="14.00">congquot_sgop</text>
</a>
</g>
</g>
<!-- QuotientGroup_quotientgroup_rightinverse&#45;&gt;QuotientGroup_congquot_sgop -->
<g id="edge26" class="edge">
<title>QuotientGroup_quotientgroup_rightinverse&#45;&gt;QuotientGroup_congquot_sgop</title>
<path fill="none" stroke="black" d="M516.73,-166.28C638.63,-153.76 832,-133.54 904.49,-124 916.28,-122.45 928.77,-120.65 940.92,-118.81"/>
<polygon fill="black" stroke="black" points="941.67,-122.24 951.02,-117.27 940.61,-115.32 941.67,-122.24"/>
</g>
<!-- QuotientGroup_quotientgroup_leftinverse&#45;&gt;QuotientGroup_congquot_inverse -->
<g id="edge27" class="edge">
<title>QuotientGroup_quotientgroup_leftinverse&#45;&gt;QuotientGroup_congquot_inverse</title>
<path fill="none" stroke="black" d="M689.99,-160.76C665.78,-150.56 634.41,-137.33 608.84,-126.55"/>
<polygon fill="black" stroke="black" points="609.93,-123.21 599.36,-122.55 607.21,-129.66 609.93,-123.21"/>
</g>
<!-- QuotientGroup_quotientgroup_leftinverse&#45;&gt;QuotientGroup_congquot_mon_unit -->
<g id="edge28" class="edge">
<title>QuotientGroup_quotientgroup_leftinverse&#45;&gt;QuotientGroup_congquot_mon_unit</title>
<path fill="none" stroke="black" d="M744.47,-160.05C752.65,-151.37 762.77,-140.64 771.75,-131.11"/>
<polygon fill="black" stroke="black" points="774.35,-133.47 778.66,-123.79 769.25,-128.66 774.35,-133.47"/>
</g>
<!-- QuotientGroup_quotientgroup_leftinverse&#45;&gt;QuotientGroup_congquot_sgop -->
<g id="edge29" class="edge">
<title>QuotientGroup_quotientgroup_leftinverse&#45;&gt;QuotientGroup_congquot_sgop</title>
<path fill="none" stroke="black" d="M789.63,-161.98C837.42,-150.24 903.58,-133.99 951.57,-122.21"/>
<polygon fill="black" stroke="black" points="952.65,-125.55 961.53,-119.76 950.98,-118.75 952.65,-125.55"/>
</g>
<!-- QuotientGroup_congquot_rightidentity -->
<g id="node23" class="node">
<title>QuotientGroup_congquot_rightidentity</title>
<g id="a_node23"><a xlink:href="QuotientGroup.html#congquot_rightidentity" xlink:title="congquot_rightidentity">
<ellipse fill="#f070d1" stroke="black" cx="1282.49" cy="-178" rx="116.98" ry="18"/>
<text text-anchor="middle" x="1282.49" y="-174.3" font-family="Times,serif" font-size="14.00">congquot_rightidentity</text>
</a>
</g>
</g>
<!-- QuotientGroup_ismonoid_quotientgroup&#45;&gt;QuotientGroup_congquot_rightidentity -->
<g id="edge30" class="edge">
<title>QuotientGroup_ismonoid_quotientgroup&#45;&gt;QuotientGroup_congquot_rightidentity</title>
<path fill="none" stroke="black" d="M1163.77,-303.87C1187.49,-278.92 1231.68,-232.45 1258.94,-203.77"/>
<polygon fill="black" stroke="black" points="1261.79,-205.85 1266.15,-196.19 1256.72,-201.03 1261.79,-205.85"/>
</g>
<!-- QuotientGroup_congquot_leftidentity -->
<g id="node24" class="node">
<title>QuotientGroup_congquot_leftidentity</title>
<g id="a_node24"><a xlink:href="QuotientGroup.html#congquot_leftidentity" xlink:title="congquot_leftidentity">
<ellipse fill="#f070d1" stroke="black" cx="1013.49" cy="-178" rx="109.68" ry="18"/>
<text text-anchor="middle" x="1013.49" y="-174.3" font-family="Times,serif" font-size="14.00">congquot_leftidentity</text>
</a>
</g>
</g>
<!-- QuotientGroup_ismonoid_quotientgroup&#45;&gt;QuotientGroup_congquot_leftidentity -->
<g id="edge31" class="edge">
<title>QuotientGroup_ismonoid_quotientgroup&#45;&gt;QuotientGroup_congquot_leftidentity</title>
<path fill="none" stroke="black" d="M1131.33,-303.87C1107.78,-278.92 1063.93,-232.45 1036.87,-203.77"/>
<polygon fill="black" stroke="black" points="1039.12,-201.06 1029.71,-196.19 1034.03,-205.86 1039.12,-201.06"/>
</g>
<!-- QuotientGroup_issemigroup_congquot -->
<g id="node25" class="node">
<title>QuotientGroup_issemigroup_congquot</title>
<g id="a_node25"><a xlink:href="QuotientGroup.html#issemigroup_congquot" xlink:title="issemigroup_congquot">
<ellipse fill="#f070d1" stroke="black" cx="1504.49" cy="-250" rx="115.08" ry="18"/>
<text text-anchor="middle" x="1504.49" y="-246.3" font-family="Times,serif" font-size="14.00">issemigroup_congquot</text>
</a>
</g>
</g>
<!-- QuotientGroup_ismonoid_quotientgroup&#45;&gt;QuotientGroup_issemigroup_congquot -->
<g id="edge32" class="edge">
<title>QuotientGroup_ismonoid_quotientgroup&#45;&gt;QuotientGroup_issemigroup_congquot</title>
<path fill="none" stroke="black" d="M1218.02,-307.17C1277.79,-295.45 1363.43,-278.66 1425.49,-266.49"/>
<polygon fill="black" stroke="black" points="1426.48,-269.86 1435.62,-264.5 1425.14,-262.99 1426.48,-269.86"/>
</g>
<!-- QuotientGroup_congquot_rightidentity&#45;&gt;QuotientGroup_congquot_mon_unit -->
<g id="edge33" class="edge">
<title>QuotientGroup_congquot_rightidentity&#45;&gt;QuotientGroup_congquot_mon_unit</title>
<path fill="none" stroke="black" d="M1199.98,-165.17C1111.18,-152.43 970.57,-132.26 880.45,-119.33"/>
<polygon fill="black" stroke="black" points="880.93,-115.86 870.53,-117.91 879.94,-122.79 880.93,-115.86"/>
</g>
<!-- QuotientGroup_congquot_rightidentity&#45;&gt;QuotientGroup_congquot_sgop -->
<g id="edge34" class="edge">
<title>QuotientGroup_congquot_rightidentity&#45;&gt;QuotientGroup_congquot_sgop</title>
<path fill="none" stroke="black" d="M1225.77,-162.24C1181.11,-150.62 1119.01,-134.46 1073.52,-122.62"/>
<polygon fill="black" stroke="black" points="1074.35,-119.22 1063.79,-120.09 1072.58,-125.99 1074.35,-119.22"/>
</g>
<!-- QuotientGroup_congquot_leftidentity&#45;&gt;QuotientGroup_congquot_mon_unit -->
<g id="edge35" class="edge">
<title>QuotientGroup_congquot_leftidentity&#45;&gt;QuotientGroup_congquot_mon_unit</title>
<path fill="none" stroke="black" d="M965.7,-161.72C931.99,-150.95 886.7,-136.47 851.17,-125.12"/>
<polygon fill="black" stroke="black" points="852.02,-121.71 841.43,-122 849.89,-128.38 852.02,-121.71"/>
</g>
<!-- QuotientGroup_congquot_leftidentity&#45;&gt;QuotientGroup_congquot_sgop -->
<g id="edge36" class="edge">
<title>QuotientGroup_congquot_leftidentity&#45;&gt;QuotientGroup_congquot_sgop</title>
<path fill="none" stroke="black" d="M1013.49,-159.7C1013.49,-151.98 1013.49,-142.71 1013.49,-134.11"/>
<polygon fill="black" stroke="black" points="1016.99,-134.1 1013.49,-124.1 1009.99,-134.1 1016.99,-134.1"/>
</g>
<!-- QuotientGroup_congquot_sgop_associative -->
<g id="node26" class="node">
<title>QuotientGroup_congquot_sgop_associative</title>
<g id="a_node26"><a xlink:href="QuotientGroup.html#congquot_sgop_associative" xlink:title="congquot_sgop_associative">
<ellipse fill="#f070d1" stroke="black" cx="1580.49" cy="-178" rx="135.68" ry="18"/>
<text text-anchor="middle" x="1580.49" y="-174.3" font-family="Times,serif" font-size="14.00">congquot_sgop_associative</text>
</a>
</g>
</g>
<!-- QuotientGroup_issemigroup_congquot&#45;&gt;QuotientGroup_congquot_sgop_associative -->
<g id="edge37" class="edge">
<title>QuotientGroup_issemigroup_congquot&#45;&gt;QuotientGroup_congquot_sgop_associative</title>
<path fill="none" stroke="black" d="M1522.89,-232.05C1532.34,-223.35 1544.02,-212.59 1554.39,-203.04"/>
<polygon fill="black" stroke="black" points="1557.01,-205.38 1562,-196.03 1552.27,-200.23 1557.01,-205.38"/>
</g>
<!-- QuotientGroup_congquot_sgop_associative&#45;&gt;QuotientGroup_congquot_sgop -->
<g id="edge38" class="edge">
<title>QuotientGroup_congquot_sgop_associative&#45;&gt;QuotientGroup_congquot_sgop</title>
<path fill="none" stroke="black" d="M1484.95,-165.2C1374.38,-151.55 1194.39,-129.33 1091.75,-116.66"/>
<polygon fill="black" stroke="black" points="1092.11,-113.18 1081.76,-115.43 1091.25,-120.13 1092.11,-113.18"/>
</g>
<!-- QuotientGroup_CongruenceQuotient -->
<g id="node30" class="node">
<title>QuotientGroup_CongruenceQuotient</title>
<g id="a_node30"><a xlink:href="QuotientGroup.html#CongruenceQuotient" xlink:title="CongruenceQuotient">
<ellipse fill="#f070d1" stroke="black" cx="794.49" cy="-34" rx="106.68" ry="18"/>
<text text-anchor="middle" x="794.49" y="-30.3" font-family="Times,serif" font-size="14.00">CongruenceQuotient</text>
</a>
</g>
</g>
<!-- QuotientGroup_congquot_inverse&#45;&gt;QuotientGroup_CongruenceQuotient -->
<g id="edge39" class="edge">
<title>QuotientGroup_congquot_inverse&#45;&gt;QuotientGroup_CongruenceQuotient</title>
<path fill="none" stroke="black" d="M610.28,-90.58C646.48,-79.66 696.41,-64.59 735.16,-52.9"/>
<polygon fill="black" stroke="black" points="736.2,-56.24 744.76,-50 734.18,-49.54 736.2,-56.24"/>
</g>
<!-- QuotientGroup_congquot_mon_unit&#45;&gt;QuotientGroup_CongruenceQuotient -->
<g id="edge40" class="edge">
<title>QuotientGroup_congquot_mon_unit&#45;&gt;QuotientGroup_CongruenceQuotient</title>
<path fill="none" stroke="black" d="M794.49,-87.7C794.49,-79.98 794.49,-70.71 794.49,-62.11"/>
<polygon fill="black" stroke="black" points="797.99,-62.1 794.49,-52.1 790.99,-62.1 797.99,-62.1"/>
</g>
<!-- QuotientGroup_congquot_sgop&#45;&gt;QuotientGroup_CongruenceQuotient -->
<g id="edge41" class="edge">
<title>QuotientGroup_congquot_sgop&#45;&gt;QuotientGroup_CongruenceQuotient</title>
<path fill="none" stroke="black" d="M969.44,-90.92C935.5,-80.07 888.31,-64.99 851.49,-53.22"/>
<polygon fill="black" stroke="black" points="852.48,-49.86 841.89,-50.15 850.35,-56.53 852.48,-49.86"/>
</g>
</g>
</svg>
